<?xml version="1.0" standalone="no"?>
<!DOCTYPE svg PUBLIC "-//W3C//DTD SVG 20010904//EN"
 "http://www.w3.org/TR/2001/REC-SVG-20010904/DTD/svg10.dtd">
<svg version="1.0" xmlns="http://www.w3.org/2000/svg"
 width="100.000000pt" height="85.000000pt" viewBox="0 0 100.000000 85.000000"
 preserveAspectRatio="xMidYMid meet">

<g transform="translate(0.000000,85.000000) scale(0.100000,-0.100000)"
fill="#000000" stroke="none">
<path d="M740 674 c0 -14 3 -14 15 -4 8 7 15 14 15 16 0 2 -7 4 -15 4 -8 0
-15 -7 -15 -16z"/>
<path d="M650 640 c0 -5 9 -10 20 -10 11 0 20 5 20 10 0 6 -9 10 -20 10 -11 0
-20 -4 -20 -10z"/>
<path d="M623 618 c-15 -20 -25 -38 -20 -38 3 0 12 11 21 25 17 26 16 35 -1
13z"/>
<path d="M664 495 c15 -8 33 -15 40 -15 16 1 -36 29 -54 30 -8 0 -2 -7 14 -15z"/>
<path d="M670 446 c0 -2 9 -6 20 -9 11 -3 20 -1 20 4 0 5 -9 9 -20 9 -11 0
-20 -2 -20 -4z"/>
<path d="M578 414 c-2 -35 3 -69 14 -79 6 -7 7 6 3 40 -8 55 -14 69 -17 39z"/>
<path d="M737 226 c-5 -16 4 -46 14 -46 5 0 6 7 3 15 -4 8 -1 21 5 28 8 10 7
14 -4 14 -8 0 -16 -5 -18 -11z"/>
<path d="M656 115 c-3 -8 -12 -12 -20 -9 -8 3 -23 1 -33 -5 -14 -8 -9 -10 30
-11 34 0 47 4 47 14 0 21 -17 29 -24 11z"/>
<path d="M781 114 c0 -11 3 -14 6 -6 3 7 2 16 -1 19 -3 4 -6 -2 -5 -13z"/>
<path d="M538 83 c6 -2 10 -9 7 -13 -3 -5 -12 -7 -19 -4 -8 3 -17 1 -21 -5 -9
-16 30 -14 44 2 11 15 5 28 -13 26 -6 0 -5 -3 2 -6z"/>
<path d="M558 43 c7 -3 16 -2 19 1 4 3 -2 6 -13 5 -11 0 -14 -3 -6 -6z"/>
</g>
</svg>
